<svg width="129" height="159" viewBox="0 0 129 159" fill="none" xmlns="http://www.w3.org/2000/svg">
<path d="M25.92 136.132C25 136.132 24.2 135.792 23.52 135.112C22.88 134.432 22.56 133.632 22.56 132.712V95.7523C22.56 94.8323 22.88 94.0323 23.52 93.3523C24.2 92.6723 25 92.3323 25.92 92.3323H47.16C48.08 92.3323 48.86 92.6723 49.5 93.3523C50.18 94.0323 50.52 94.8323 50.52 95.7523V97.1323C50.52 98.0523 50.18 98.8523 49.5 99.5323C48.86 100.212 48.08 100.552 47.16 100.552H33.24C32.92 100.552 32.76 100.712 32.76 101.032V108.952C32.76 109.312 32.92 109.492 33.24 109.492H45.96C46.88 109.492 47.66 109.832 48.3 110.512C48.98 111.192 49.32 111.992 49.32 112.912V113.812C49.32 114.732 48.98 115.532 48.3 116.212C47.66 116.892 46.88 117.232 45.96 117.232H33.24C32.92 117.232 32.76 117.392 32.76 117.712V127.432C32.76 127.752 32.92 127.912 33.24 127.912H47.16C48.08 127.912 48.86 128.252 49.5 128.932C50.18 129.612 50.52 130.412 50.52 131.332V132.712C50.52 133.632 50.18 134.432 49.5 135.112C48.86 135.792 48.08 136.132 47.16 136.132H25.92ZM71.258 118.612C66.218 117.012 62.578 115.032 60.338 112.672C58.098 110.272 56.978 107.352 56.978 103.912C56.978 100.152 58.278 97.1923 60.878 95.0323C63.518 92.8323 67.278 91.7323 72.158 91.7323C75.838 91.7323 79.178 92.1523 82.178 92.9923C83.138 93.2723 83.898 93.8523 84.458 94.7323C85.058 95.5723 85.358 96.5123 85.358 97.5523V99.2923C85.358 100.092 85.018 100.712 84.338 101.152C83.658 101.592 82.938 101.672 82.178 101.392C78.778 100.192 75.638 99.5923 72.758 99.5923C69.078 99.5923 67.238 101.032 67.238 103.912C67.238 106.352 68.838 108.092 72.038 109.132C77.558 110.812 81.378 112.772 83.498 115.012C85.658 117.252 86.738 120.192 86.738 123.832C86.738 132.432 81.318 136.732 70.478 136.732C67.038 136.732 63.918 136.192 61.118 135.112C60.158 134.752 59.398 134.132 58.838 133.252C58.318 132.332 58.058 131.332 58.058 130.252V128.332C58.058 127.612 58.378 127.072 59.018 126.712C59.658 126.312 60.298 126.272 60.938 126.592C63.858 128.032 66.838 128.752 69.878 128.752C71.998 128.752 73.598 128.352 74.678 127.552C75.798 126.712 76.358 125.532 76.358 124.012C76.358 122.692 75.978 121.612 75.218 120.772C74.458 119.932 73.138 119.212 71.258 118.612ZM98.5973 136.132C97.6773 136.132 96.8773 135.792 96.1973 135.112C95.5573 134.432 95.2373 133.632 95.2373 132.712V95.7523C95.2373 94.8323 95.5573 94.0323 96.1973 93.3523C96.8773 92.6723 97.6773 92.3323 98.5973 92.3323H103.037C103.957 92.3323 104.737 92.6723 105.377 93.3523C106.057 94.0323 106.397 94.8323 106.397 95.7523V132.712C106.397 133.632 106.057 134.432 105.377 135.112C104.737 135.792 103.957 136.132 103.037 136.132H98.5973Z" fill="#4C813F"/>
<path fill-rule="evenodd" clip-rule="evenodd" d="M54.8156 60.6617L54.8245 60.6558C54.9905 60.5686 55.1528 60.4697 55.3101 60.3713L55.3308 60.3596L55.3919 60.319L55.6072 60.1794L55.6245 60.1618L55.7757 60.0515L55.805 60.0339L55.8457 59.9991C56.7648 59.2899 57.4686 58.3659 57.8759 57.2209L57.8848 57.1978L57.9024 57.1454L57.9171 57.1047L57.9286 57.0755L57.9462 57.0178L57.952 57.0002L57.9754 56.9247L57.9955 56.8492L58.0014 56.8316L58.0162 56.7734L58.0279 56.7386L58.0393 56.6979L58.051 56.6455L58.0569 56.6224L58.0745 56.5524L58.0773 56.5469C58.2022 56.0063 58.2722 55.4192 58.2781 54.7911L58.1992 54.3494L58.1964 54.3321L58.1732 54.1984L58.1674 54.1808L58.1409 54.0471C57.5152 50.9961 56.241 48.8165 54.3762 47.52C52.8144 46.4391 50.8099 45.9623 48.3982 46.0902H48.3865L48.2581 46.0961H48.2439L47.9761 46.1192H47.9613L47.8336 46.1309H47.816L47.6908 46.1423H47.6735L47.5454 46.1599H47.5281L47.4029 46.1716L47.3853 46.1774L47.2545 46.1894L47.2369 46.195L47.0885 46.2125L46.9608 46.2301L46.9401 46.2359L46.8118 46.2535H46.7917L46.6405 46.2769L46.0935 46.3755H46.0821H46.0762L46.0673 46.3814H46.0587H46.0528H46.0411H46.0358H46.0241H46.0213L45.9747 46.3872H45.9719H45.9571H45.9423L45.8612 46.3814H45.8581L45.8492 46.3755H45.8433L45.8174 46.37H45.8085H45.8026H45.7937C45.7443 46.3583 45.6977 46.3407 45.6542 46.3176H45.6394V46.3117L45.6135 46.3H45.6104L45.5987 46.2942L45.5839 46.2822L45.5697 46.2766L45.5462 46.2591H45.5435L45.5317 46.2471H45.5287L45.5203 46.2415H45.5172L45.5055 46.2295L45.4938 46.224L45.4907 46.2181L45.4821 46.2122H45.479L45.4707 46.2008H45.4676L45.4589 46.1894H45.4531L45.4472 46.1836L45.4414 46.1777L45.4355 46.1718L45.4327 46.166L45.4238 46.1601L45.4207 46.1543L45.4124 46.1484L45.4096 46.1426L45.4037 46.1367L45.4006 46.1309L45.3917 46.125L45.3889 46.1192L45.3772 46.1075L45.3713 46.1016L45.3688 46.0902L45.363 46.0844L45.3602 46.0785L45.3543 46.0726L45.3485 46.0668L45.3426 46.0612L45.3398 46.0554L45.3368 46.0495L45.3309 46.0381L45.3281 46.0322L45.3223 46.0264L45.3192 46.0205L45.3136 46.0147L45.3108 46.0088L45.3078 45.9971L45.3019 45.9913L45.2991 45.9796H45.296L45.2902 45.9682L45.2871 45.9623L45.2843 45.9509L45.2813 45.945L45.2785 45.9392L45.2726 45.9336V45.9216L45.2667 45.916V45.9102L45.2614 45.8926C44.4584 43.8816 43.8243 42.4981 43.0648 41.4752C42.4539 40.7719 41.6483 40.1326 40.4759 39.3073C39.5648 38.8191 38.4362 38.3599 36.9762 37.8254C36.7403 37.7382 36.5514 37.5289 36.5048 37.2617C36.179 35.5469 35.6845 33.7627 35.0035 32.1002C34.061 29.7813 32.7633 27.7006 31.0643 26.3464C29.4177 25.027 27.3638 24.3819 24.8475 24.8528C24.1495 24.9863 23.4073 25.207 22.6223 25.5271C18.0925 27.3693 17.0189 30.2467 15.733 33.6757C15.3494 34.7104 14.9422 35.7971 14.4242 36.9248C14.0693 37.6978 13.0947 38.4245 11.8754 39.3365C10.4213 40.418 8.57943 41.7953 7.27927 43.5971C5.70798 45.7709 4.27393 46.9624 3.08395 47.9505C1.10596 49.5895 -0.136183 50.6241 0.0119364 55.4657C0.532725 58.4999 2.16455 60.2317 4.2915 61.1792C6.5172 62.1675 9.31835 62.3303 12.0035 62.2138C22.7094 61.7431 33.1129 61.7838 43.7225 61.8248L49.4799 61.8362C51.4936 61.8357 53.3408 61.4461 54.8156 60.6617ZM103.917 23.0446C105.441 23.8238 106.727 24.765 107.818 25.9044C108.79 26.9215 109.595 28.0896 110.271 29.4383C111.975 29.4266 113.523 28.7353 114.652 27.6248L114.687 27.59C115.827 26.4509 116.534 24.8759 116.534 23.1319C116.534 21.4115 115.842 19.8482 114.722 18.7144L114.687 18.6796C113.546 17.5405 111.97 16.8313 110.224 16.8313C108.502 16.8313 106.937 17.5229 105.796 18.6448L105.767 18.6796C104.645 19.7953 103.94 21.3415 103.917 23.0446ZM85.5396 54.4539C85.5572 54.3842 85.5862 54.3202 85.6238 54.2622C86.5142 52.8207 87.064 51.0131 87.3402 48.9848C87.6487 46.7063 87.6083 44.155 87.3168 41.522L87.3056 41.3941L87.3087 41.1793C87.1368 39.7319 86.8925 38.2671 86.5896 36.8139C85.3332 30.8045 83.093 25.0094 80.9808 21.6383C79.5208 23.9224 78.0313 27.16 76.8265 30.7811C75.2586 35.5009 74.1824 40.8596 74.3071 45.6081C74.4295 50.229 75.6976 54.2511 78.7699 56.4479C79.2823 56.8141 79.8491 57.1337 80.4659 57.3954V51.0251L77.3738 47.5375C77.106 47.2296 77.1319 46.7648 77.4374 46.4915C77.7456 46.2184 78.2173 46.2471 78.4851 46.5553L80.4662 48.7873V38.308L77.9791 35.4541C77.7082 35.1462 77.7403 34.6753 78.0486 34.4022C78.3599 34.135 78.8313 34.1642 79.1019 34.4777L80.4662 36.0412V33.6406C80.4662 33.2282 80.8009 32.8966 81.211 32.8966C81.6213 32.8966 81.9563 33.2279 81.9563 33.6406V45.1082L84.042 42.5856C84.298 42.2663 84.7692 42.2197 85.0835 42.4811C85.4007 42.7425 85.447 43.2076 85.1881 43.5272L81.9563 47.4389V57.3371C82.5842 57.1106 83.1482 56.8141 83.6551 56.4479C84.3993 55.9185 85.025 55.2444 85.5396 54.4539ZM71.6482 28.8802C71.4504 28.6823 71.1796 28.5605 70.8802 28.5605C70.5807 28.5605 70.3067 28.6826 70.112 28.8802C69.9143 29.0777 69.7921 29.3449 69.7921 29.6473C69.7921 29.9435 69.9143 30.2168 70.112 30.4144C70.3067 30.612 70.5807 30.7343 70.8802 30.7343C71.1796 30.7343 71.4504 30.612 71.6482 30.4144C71.8459 30.2168 71.9681 29.9438 71.9681 29.6473C71.9684 29.3449 71.8459 29.0777 71.6482 28.8802ZM70.8805 27.0725C71.5902 27.0725 72.2356 27.3573 72.7012 27.8283C73.1695 28.293 73.458 28.9381 73.458 29.6473C73.458 30.3565 73.1695 31.0015 72.7012 31.4663C72.2356 31.9317 71.5902 32.222 70.8805 32.222C70.1675 32.222 69.5246 31.9317 69.0562 31.4663C68.5907 31.0015 68.3028 30.3565 68.3028 29.6473C68.3028 28.9381 68.5907 28.293 69.0562 27.8283C69.5243 27.3573 70.1675 27.0725 70.8805 27.0725ZM106.259 46.4739L106.099 46.8166L106.465 46.7236C106.838 46.6132 107.187 46.4329 107.493 46.1833C107.798 45.9336 108.048 45.6254 108.235 45.288L108.394 44.9452L108.028 45.0324C107.655 45.1486 107.31 45.3287 107.001 45.5786C106.693 45.8286 106.448 46.1367 106.259 46.4739ZM104.455 47.4386C104.551 46.8518 104.735 46.2939 105.008 45.7937C105.281 45.2941 105.645 44.8466 106.102 44.4746C106.553 44.1084 107.065 43.8412 107.615 43.6726C108.17 43.5043 108.764 43.4344 109.372 43.4692C109.765 43.4868 110.067 43.8178 110.05 44.2132L110.035 44.3236C109.939 44.9104 109.759 45.4683 109.485 45.9684C109.212 46.4681 108.845 46.9156 108.391 47.2876C107.941 47.6537 107.429 47.9209 106.878 48.0898C106.323 48.2581 105.727 48.3278 105.121 48.2929C104.726 48.2754 104.423 47.9443 104.441 47.5489L104.455 47.4386ZM109.479 6.811C109.479 6.40417 109.814 6.067 110.224 6.067C110.637 6.067 110.969 6.40417 110.969 6.811V11.1588C110.969 11.5712 110.637 11.9028 110.224 11.9028C109.814 11.9028 109.479 11.5715 109.479 11.1588V6.811ZM121.256 11.0654C121.547 10.7748 122.018 10.7809 122.306 11.0713C122.594 11.3622 122.594 11.8328 122.303 12.1176L119.225 15.192C118.934 15.4829 118.463 15.4829 118.172 15.192C117.884 14.9016 117.887 14.431 118.178 14.1401L121.256 11.0654ZM126.565 22.3879C126.975 22.3879 127.31 22.7248 127.31 23.1316C127.31 23.5443 126.975 23.8756 126.565 23.8756H122.21C121.8 23.8756 121.465 23.5445 121.465 23.1316C121.465 22.7248 121.8 22.3879 122.21 22.3879H126.565ZM122.306 34.1517C122.597 34.4365 122.597 34.9129 122.306 35.2036C122.015 35.4942 121.541 35.4942 121.253 35.2036L118.172 32.1292C117.881 31.8386 117.881 31.3618 118.172 31.0712C118.463 30.7806 118.937 30.7806 119.228 31.0712L122.306 34.1517ZM98.1451 12.1176C97.8547 11.827 97.8547 11.3564 98.1451 11.0657C98.436 10.7751 98.9072 10.7751 99.1981 11.0657L102.276 14.1401C102.567 14.431 102.567 14.9016 102.276 15.192C101.985 15.4829 101.514 15.4829 101.223 15.192L98.1451 12.1176ZM40.8541 16.7324C39.7283 14.4772 34.9863 16.8486 34.9751 16.8544C34.6086 17.0344 34.1603 16.8892 33.977 16.5231C33.7935 16.157 33.9422 15.7094 34.3084 15.5294C34.3232 15.5236 39.2282 13.0765 41.5175 15.175C43.807 13.0767 48.7123 15.5236 48.7293 15.5294C49.0958 15.7094 49.2411 16.157 49.0609 16.5231C48.8746 16.8892 48.4325 17.0347 48.066 16.8544C48.0514 16.8486 43.3069 14.4772 42.1836 16.7324H42.1805L42.1721 16.7499L42.1635 16.7616L42.1546 16.7792L42.1456 16.7967H42.1428L42.137 16.8084L42.1339 16.8143L42.1256 16.8257L42.1138 16.8377V16.8435L42.1049 16.8552H42.1018L42.0932 16.8667L42.0901 16.8725L42.0812 16.8784L42.0784 16.8842L42.07 16.8959L42.067 16.9018L42.0553 16.9076L42.0522 16.9135L42.0435 16.9193L42.0405 16.9252L42.0318 16.9366H42.026L42.0176 16.9486L42.0148 16.9542L42.0031 16.96L42.0003 16.9659L41.9914 16.9717L41.9855 16.9776L41.9766 16.9834L41.9738 16.9893L41.9624 16.9951H41.9565L41.9448 17.0068L41.9331 17.0185H41.9272L41.9161 17.0244L41.913 17.0302L41.8982 17.0361L41.8837 17.0475H41.8806L41.8664 17.0534L41.8516 17.0648H41.8486L41.8341 17.0707L41.8193 17.0765H41.8168L41.802 17.0821L41.7989 17.0879H41.7872L41.7813 17.0938L41.7696 17.0996H41.764L41.7523 17.1055H41.7434L41.7348 17.1113H41.7258H41.7169L41.7085 17.1172H41.6999L41.6882 17.123H41.6823H41.6706L41.6647 17.1289H41.6533H41.6474L41.6182 17.1345H41.6129H41.6011H41.5953L41.5836 17.1403H41.5777H41.566H41.5604H41.5487H41.5428H41.5281H41.5253H41.5105H41.5049H41.4932H41.4873H41.4725H41.4698H41.4555H41.4497L41.438 17.1345H41.4321H41.4204H41.4145L41.3855 17.1289H41.3797H41.3679L41.3621 17.123H41.3506H41.3448L41.3331 17.1172H41.3272L41.3155 17.1113H41.3069H41.2985L41.2896 17.1055H41.2806L41.272 17.0996H41.2631L41.2541 17.0938L41.2488 17.0879H41.2371L41.2343 17.0821L41.2195 17.0765H41.2168L41.202 17.0707H41.1995L41.1847 17.0648H41.1816L41.1699 17.0534L41.1523 17.0475L41.135 17.0361L41.1233 17.0302L41.1175 17.0244L41.1057 17.0185H41.1029L41.0915 17.0068H41.0887L41.077 16.9951H41.0711L41.0625 16.9893L41.0594 16.9834L41.0477 16.9776L41.0421 16.9717L41.0363 16.9659L41.0304 16.96L41.0215 16.9542L41.0156 16.9486L41.0067 16.9366H41.0009L40.995 16.9252L40.9897 16.9193L40.9808 16.9135L40.9777 16.9076L40.9691 16.9018L40.966 16.8959L40.9571 16.8842L40.9543 16.8784L40.9428 16.8725L40.94 16.8667L40.9311 16.8552L40.9222 16.8435L40.9194 16.8377L40.9105 16.8257H40.9077L40.8988 16.8143L40.8957 16.8084L40.8904 16.7967H40.8873L40.8784 16.7792L40.8697 16.7616L40.8608 16.7499L40.855 16.7324H40.8541ZM52.2557 2.40525C51.1299 0.155976 46.3878 2.52145 46.3761 2.5273C46.0096 2.71344 45.5647 2.56241 45.378 2.19626C45.1978 1.83011 45.3432 1.38845 45.7097 1.20231C45.7273 1.19646 50.6289 -1.25038 52.9188 0.853718C55.2108 -1.25038 60.1161 1.19646 60.1306 1.20231C60.4971 1.38845 60.6455 1.83011 60.462 2.19626C60.2787 2.56241 59.8335 2.71344 59.4672 2.5273C59.4525 2.52145 54.7104 0.155976 53.5849 2.40525L53.5818 2.4111L53.5759 2.42252L53.5642 2.44008L53.5584 2.45763H53.5553L53.5469 2.46934V2.47519L53.538 2.48689H53.5352L53.5294 2.49832L53.5263 2.50417L53.5174 2.51559L53.5146 2.52144L53.5056 2.5273L53.5029 2.53315L53.4945 2.54485L53.4917 2.55043L53.4828 2.55628L53.48 2.56213L53.4711 2.56798L53.468 2.57383L53.4593 2.58554L53.4535 2.59139L53.4479 2.59724L53.442 2.60309L53.4362 2.60894L53.4303 2.61479L53.4214 2.62064L53.4155 2.6265L53.4066 2.63235L53.4008 2.6382L53.3924 2.64377L53.3893 2.64962L53.3776 2.66105H53.3748L53.3659 2.6669L53.36 2.67275L53.3483 2.67833L53.3461 2.68418L53.3344 2.69003H53.3316L53.3199 2.70145H53.314L53.3023 2.71316H53.2995L53.2853 2.71901L53.2677 2.73043L53.256 2.73629H53.2529L53.2387 2.74214L53.2356 2.74799L53.2211 2.75384H53.2181L53.2033 2.75969H53.2005L53.189 2.76554L53.1832 2.7714H53.1715L53.1656 2.77725H53.157L53.148 2.7831H53.1397L53.128 2.78895H53.1221H53.1107L53.1048 2.7948H53.0931H53.0875L53.0758 2.80065H53.0699L53.0582 2.8065H53.0524L53.0234 2.81236H53.0175H53.0058H52.9999H52.9882H52.9826L52.9681 2.81821H52.9623H52.9505H52.9447H52.9305H52.9274H52.9126H52.9068H52.895H52.8892H52.8777H52.8719L52.8602 2.81236H52.8543H52.8426H52.8367H52.8256H52.8197L52.7904 2.8065H52.7846L52.7731 2.80065H52.7645L52.7556 2.7948H52.7466H52.738L52.7291 2.78895H52.7207H52.709L52.7031 2.7831H52.6914L52.6856 2.77725H52.6741L52.6683 2.7714H52.6565L52.6507 2.76554L52.639 2.75969H52.6365L52.6222 2.75384H52.6192L52.6044 2.74799V2.74214L52.5868 2.73629L52.5726 2.73043L52.555 2.71901L52.5405 2.71316L52.5257 2.70145H52.5232L52.5115 2.69003H52.5056L52.4939 2.68418L52.4911 2.67833L52.4822 2.67275L52.4763 2.6669L52.4649 2.66105H52.4621L52.4532 2.64962L52.4473 2.64377L52.4384 2.6382L52.4325 2.63235L52.4236 2.6265L52.4183 2.62064L52.4125 2.61479L52.4066 2.60894L52.3977 2.60309L52.3946 2.59724L52.3829 2.59139L52.3801 2.58554L52.3712 2.57383L52.3681 2.56798L52.3597 2.56213L52.357 2.55628L52.348 2.55043L52.3422 2.54485L52.3363 2.53315L52.3332 2.5273L52.3243 2.52144L52.3215 2.51559L52.3132 2.50417V2.49832L52.3042 2.48689H52.3014L52.2925 2.47519V2.46934L52.2836 2.45763L52.2719 2.44008L52.266 2.42252L52.2576 2.4111L52.2557 2.40525ZM21.2728 6.43287C20.147 4.1836 15.4021 6.54935 15.3904 6.5552C15.0239 6.73521 14.5787 6.59003 14.3954 6.22388C14.2124 5.85773 14.3606 5.41022 14.7271 5.23021C14.7419 5.22436 19.6435 2.7714 21.9361 4.87549C24.2282 2.77753 29.1334 5.22436 29.1452 5.23021C29.5117 5.41022 29.6629 5.85773 29.4765 6.22388C29.2963 6.59003 28.8486 6.73549 28.4821 6.5552C28.4704 6.54935 23.7283 4.17802 22.5995 6.43287L22.5936 6.45042H22.5908L22.5819 6.46798L22.576 6.47968H22.5704L22.5646 6.49724L22.5529 6.50866V6.51451L22.5439 6.52594L22.5412 6.53179L22.5353 6.53764L22.5294 6.54349L22.5236 6.55547L22.5183 6.56105L22.5124 6.5669L22.5066 6.57275L22.5007 6.58446L22.4948 6.59031L22.489 6.59616L22.4831 6.60201L22.4773 6.60786L22.4714 6.61344L22.4658 6.62542H22.46L22.4511 6.63684L22.4452 6.64269L22.4365 6.64854L22.4307 6.6544L22.4248 6.66025L22.4195 6.6661L22.4078 6.67195L22.4047 6.6778L22.3958 6.68366L22.39 6.68951L22.381 6.69536L22.3783 6.70121L22.3668 6.70706H22.361L22.3492 6.71876H22.3462L22.3345 6.73047H22.3317L22.32 6.73632H22.3172L22.3029 6.74774L22.2854 6.75359L22.2706 6.7653H22.2678L22.2564 6.77115H22.2505L22.2388 6.777L22.2329 6.78286L22.2212 6.78871H22.2153L22.2042 6.79456H22.1983L22.1866 6.80041H22.1808L22.1718 6.80626H22.1632L22.1548 6.81211H22.1459L22.137 6.81796H22.1283H22.1194L22.111 6.82381H22.1052H22.0934L22.0848 6.82967H22.0759H22.0669L22.0379 6.83524H22.0321L22.0204 6.84109H22.0145H22.0031H21.9972H21.9824H21.9766H21.9649H21.959H21.9476H21.9417H21.93H21.9241H21.9124H21.9066H21.8954H21.8895H21.8778H21.872H21.8572H21.8544L21.8402 6.83524H21.8374L21.805 6.82967H21.7994H21.7877L21.7819 6.82381H21.7702H21.7612L21.7523 6.81796H21.7439H21.735L21.7264 6.81211H21.7174L21.7085 6.80626H21.7026L21.6915 6.80041H21.6856L21.6739 6.79456H21.6681L21.6563 6.78871H21.6505L21.639 6.78286L21.6332 6.777L21.6215 6.77115H21.6184L21.6036 6.7653L21.5863 6.75359L21.5718 6.74774H21.5688L21.557 6.73632H21.554L21.5397 6.73047L21.525 6.71876H21.5222L21.5105 6.70706H21.5077L21.496 6.70121L21.4929 6.69536L21.4814 6.68951L21.4756 6.68366L21.4669 6.6778L21.4639 6.67195L21.4522 6.6661L21.4463 6.66025L21.4407 6.6544L21.4349 6.64854L21.4259 6.64269L21.4231 6.63684L21.4114 6.62542H21.4086L21.3997 6.61344L21.3939 6.60786L21.3886 6.60201L21.3827 6.59616L21.3768 6.59031L21.371 6.58446L21.3651 6.57275L21.3593 6.5669L21.3534 6.56105L21.3476 6.55547L21.3417 6.54349L21.3361 6.53764L21.3303 6.53179L21.3272 6.52594L21.3185 6.51451V6.50866L21.3096 6.49724H21.3065L21.3007 6.47968H21.2979L21.289 6.46798L21.2806 6.45042L21.2728 6.43287ZM68.6693 70.8678L68.5064 71.2106L68.8758 71.1234C69.2336 71.013 69.565 70.8386 69.8621 70.6062L69.8998 70.5772C70.2111 70.3214 70.4585 70.0194 70.6443 69.6822L70.8044 69.3394L70.4378 69.4322C70.066 69.5426 69.7165 69.7229 69.4108 69.9725C69.1053 70.2225 68.8554 70.5307 68.6693 70.8678ZM66.8595 71.8732C66.9496 71.2747 67.1385 70.7051 67.418 70.1935C67.6916 69.688 68.0584 69.2405 68.512 68.8682C68.9628 68.5024 69.4749 68.2349 70.0247 68.0663C70.5807 67.898 71.174 67.828 71.7818 67.8632C72.1748 67.8807 72.4803 68.2115 72.4599 68.6071L72.454 68.6768C72.3642 69.2754 72.1782 69.8446 71.8956 70.3624C71.6192 70.8679 71.2529 71.3156 70.8047 71.6815L70.7639 71.7105C70.3218 72.0649 69.8211 72.3207 69.2891 72.4835C68.7332 72.652 68.1399 72.7217 67.5287 72.6927C67.1388 72.6693 66.8333 72.3383 66.854 71.9432L66.8595 71.8732ZM59.7671 54.7445L59.6625 54.0763L59.6566 54.0588L59.6274 53.9075C58.9353 50.3736 57.4457 47.8337 55.2259 46.2936C53.5093 45.1077 51.3829 44.5381 48.8665 44.5846H48.8576L48.7123 44.5905H48.7006L48.5552 44.5964H48.5463L48.3979 44.6022H48.392L48.2409 44.6136H48.235L48.0838 44.6195H48.0749L47.9265 44.6312H47.9148L47.7636 44.6487H47.7549L47.6037 44.6604H47.5951L47.4408 44.678L47.2779 44.6956H47.2696L47.1153 44.7131H47.1064C46.891 44.7421 46.6698 44.7713 46.4492 44.8062C45.7914 43.0103 45.2564 41.8533 44.4706 40.8479C44.3948 40.7434 44.3136 40.6445 44.2294 40.5517C43.9588 40.1912 43.6734 39.8601 43.3627 39.5578C42.7836 38.9941 42.1345 38.5232 41.3465 38.0873C43.3127 36.0128 44.6015 35.4836 45.5125 35.1058C46.0799 34.8678 46.5306 34.6817 46.9555 34.2804C47.5602 33.6992 47.866 33.0017 48.2325 32.1649C48.9452 30.5317 49.9374 28.2532 54.2398 25.5795C54.9846 25.1145 55.7121 24.7191 56.4507 24.3529C57.1841 23.9929 57.9668 23.6385 58.7841 23.272C59.0458 23.15 59.2089 22.9003 59.2201 22.6325C59.5055 17.4482 61.4369 12.8914 64.6023 9.50277C67.7209 6.16648 72.044 3.95817 77.1702 3.41731C79.4887 3.17321 80.9956 4.24852 82.6419 5.42248C83.9022 6.32336 85.2431 7.27662 87.0847 7.85204C87.8292 8.08471 88.5012 8.27642 89.1037 8.44501C92.2569 9.34004 93.5316 9.70618 95.5735 13.8213C96.219 15.129 96.6845 16.4194 96.9986 17.7447C97.313 19.0753 97.479 20.4473 97.5225 21.9002C97.5314 22.2491 97.7786 22.5339 98.1016 22.6035C101.962 23.4754 104.746 24.8355 106.742 26.9279C108.741 29.0203 109.991 31.8857 110.777 35.757C110.855 36.1346 111.213 36.3904 111.592 36.3435C116.391 35.7623 119.883 37.1344 122.437 39.7032C125.044 42.3189 126.72 46.1955 127.831 50.5258C129.558 57.268 126.443 60.1858 121.786 61.3773L121.727 61.3946C117.538 62.4526 112.101 62.2026 107.641 61.9992C106.305 61.941 105.052 61.883 103.911 61.8657C101.04 61.8251 98.1683 61.8075 95.3001 61.8019V69.1252C97.5986 68.9858 99.8559 68.98 102.049 69.0903C102.448 68.8694 102.867 68.6487 103.306 68.4394C103.763 68.2184 104.237 68.0092 104.726 67.806C106.745 66.9804 108.77 66.4401 110.69 66.1843C112.703 65.9115 114.606 65.9405 116.275 66.2542C116.677 66.3297 116.945 66.7193 116.869 67.1203C116.793 67.5268 116.403 67.7885 116.002 67.713C114.483 67.4285 112.738 67.3992 110.888 67.6547C109.087 67.893 107.187 68.4046 105.291 69.1776L104.973 69.3113C105.596 69.3751 106.216 69.4506 106.826 69.5323C110.789 70.0784 114.469 71.0375 117.707 72.3335C118.088 72.4849 118.271 72.9207 118.12 73.2985C117.969 73.6822 117.535 73.8681 117.154 73.7109C114.023 72.4614 110.469 71.5316 106.629 71.0086C102.916 70.497 98.937 70.3574 94.8145 70.648C89.8133 71.0024 85.1061 71.9618 80.9024 73.3799L80.8709 73.3916C76.5358 74.8562 72.7308 76.8209 69.6995 79.1167C69.3703 79.3608 68.9023 79.2968 68.6579 78.9716C68.408 78.6405 68.4749 78.1755 68.8032 77.9314C71.957 75.5425 75.9015 73.5081 80.3964 71.9852L80.4227 71.9735C80.987 71.7874 81.5543 71.6074 82.1334 71.4332L82.0665 59.5992L82.0723 59.5237L82.0693 58.8028C82.9689 58.5242 83.7714 58.1171 84.481 57.6116C85.0715 57.1875 85.5954 56.699 86.061 56.147C86.7419 57.5823 87.69 58.7972 88.8189 59.6747C89.866 60.4825 91.0675 61.0058 92.3509 61.1452V61.7961C89.642 61.7961 86.9307 61.8019 84.2224 61.7961H83.5647L83.6143 71.0089C86.8113 70.1487 90.2328 69.544 93.8111 69.2361V58.9603L93.8139 58.8786V55.4205L97.0461 51.503C97.3052 51.1831 97.2586 50.7183 96.9412 50.4567C96.6271 50.2009 96.1562 50.2415 95.8974 50.5614L93.8139 53.0838V41.6165C93.8139 41.2093 93.4798 40.8725 93.0697 40.8725C92.6594 40.8725 92.3244 41.2093 92.3244 41.6165V44.0226L90.9601 42.4535C90.6895 42.1456 90.2181 42.1105 89.907 42.378C89.5988 42.6511 89.5667 43.122 89.837 43.4299L92.3244 46.2894V51.0324L90.3433 48.7945C90.0758 48.4925 89.6047 48.4632 89.2989 48.7307C88.9935 49.0038 88.9642 49.4688 89.2351 49.777L92.3244 53.2644V59.6463C91.388 59.5067 90.5059 59.1057 89.7266 58.5013C88.6794 57.6877 87.8066 56.5079 87.2127 55.0837L87.0732 54.7292C87.9723 53.1596 88.5279 51.2709 88.8127 49.1843C89.1385 46.7779 89.0981 44.1101 88.7954 41.3668C88.8013 39.6757 89.336 38.0015 90.1921 36.7808C90.957 35.6826 91.9754 34.962 93.0661 34.962C94.212 34.962 95.2594 35.5834 96.0276 36.5893C96.8422 37.6474 97.3482 39.1292 97.3482 40.7741C97.3482 41.1578 97.3191 41.5239 97.2698 41.8784C97.2201 42.239 97.1445 42.5876 97.0455 42.913L97.0424 42.9306C96.9671 43.1747 97.0223 43.4536 97.2112 43.6567C98.0028 44.4938 98.6511 45.5574 99.0994 46.7779C99.5301 47.9639 99.7741 49.3005 99.7741 50.7127C99.7741 53.2354 98.9976 55.508 97.7468 57.1412C97.0569 58.0418 96.2251 58.7451 95.3001 59.1871V60.7971C96.6965 60.2914 97.9418 59.3323 98.9281 58.0418C100.368 56.1587 101.264 53.5664 101.264 50.7125C101.264 49.1261 100.988 47.6205 100.496 46.2719C100.03 45.0049 99.373 43.8716 98.5761 42.947C98.6455 42.6684 98.7008 42.3777 98.7415 42.0871C98.8029 41.6569 98.8377 41.2152 98.8377 40.7733C98.8377 38.7971 98.2157 36.9953 97.2087 35.6876C96.161 34.3158 94.6948 33.4734 93.0658 33.4734C91.4543 33.4734 90.0111 34.4498 88.9754 35.9317C88.6643 36.3736 88.3904 36.8618 88.1581 37.3849C88.1025 37.0942 88.0443 36.8097 87.9862 36.5247C86.5784 29.7766 83.9368 23.2609 81.5658 19.9539C81.5223 19.89 81.464 19.8318 81.397 19.7853C81.0773 19.5587 80.6319 19.6345 80.4051 19.9539C78.6943 22.3424 76.8876 26.0914 75.4764 30.3347C73.8591 35.1938 72.7534 40.7209 72.8847 45.6441C73.0184 50.6891 74.4524 55.1179 77.944 57.6113C78.7175 58.1633 79.5959 58.6225 80.5853 58.9653L80.5973 61.7902C72.367 61.7671 64.1371 61.7554 55.904 61.7496C56.1687 61.5927 56.4248 61.4241 56.6661 61.2379C57.8759 60.3312 58.7958 59.1283 59.3077 57.64L59.325 57.5938L59.3367 57.5472L59.3601 57.4834L59.366 57.46L59.395 57.3672L59.424 57.2741L59.4299 57.2566L59.4505 57.1811L59.4622 57.1404L59.4764 57.088L59.494 57.0239L59.4999 56.9949L59.523 56.9077V56.9019L59.5465 56.8032V56.7915L59.5671 56.7102L59.5755 56.6753L59.5872 56.6115L59.5989 56.5533L59.6048 56.5126L59.6223 56.4312L59.6424 56.3092L59.6572 56.2161L59.6631 56.1871L59.6748 56.1172L59.6801 56.0648L59.6859 56.0124L59.6977 55.9369V55.9138L59.7094 55.8151V55.8093L59.7211 55.7048L59.7242 55.6872L59.7325 55.6L59.7353 55.5593L59.7384 55.4955L59.7442 55.4258L59.7473 55.391L59.7532 55.2979V55.2862L59.759 55.1817L59.7618 55.1642V55.0711L59.7649 55.0304V54.9666L59.7677 54.9025V54.8563V54.7632V54.7445H59.7671Z" fill="#4C813F"/>
</svg>
